<svg xmlns="http://www.w3.org/2000/svg" viewBox="0 0 408.12 652.05"><defs><style>.cls-1,.cls-9{fill:#f96853;}.cls-2{fill:#f9b8ae;}.cls-3{fill:#f94d37;}.cls-4{opacity:0.05;}.cls-5{fill:#fff;opacity:0.3;}.cls-6{fill:#f95841;}.cls-7{fill:#f95139;}.cls-8{font-size:103.64px;fill:#4d4d4d;font-family:BodoniSvtyTwoOSITCTT-Bold, "Bodoni 72 Oldstyle";letter-spacing:0.1em;}.cls-8,.cls-9{font-weight:700;}.cls-9{font-size:156.42px;font-family:Futura-Bold, Futura;letter-spacing:-0.21em;}</style></defs><g id="Layer_2" data-name="Layer 2"><g id="Layer_1-2" data-name="Layer 1"><path class="cls-1" d="M337.84,387.68s17-58.23-23.21-107.53c-7.39,7.33-14.15,13.46-19.76,18.51A400.37,400.37,0,0,1,259.58,327l-89.76-52.72a400.24,400.24,0,0,1,7.57-44.63c1.68-7.36,3.74-16.25,6.55-26.28C121.3,192.27,78.7,235.45,78.7,235.45a148.64,148.64,0,0,1,27-41.23c35-37.68,80.43-46.23,100-48.49a306,306,0,0,1,17.76-31.32c15.38-23.71,41.4-63.86,92.63-90.85A221.45,221.45,0,0,1,391.31,0a221.55,221.55,0,0,1,16,77.14c1.36,57.89-21,100.17-34.26,125.14a303.12,303.12,0,0,1-18.71,30.77c7.56,18.21,22.18,62,6.33,110.94A148,148,0,0,1,337.84,387.68Z"/><rect class="cls-2" x="223.22" y="211.88" width="11.17" height="124.41" transform="translate(170.35 -78.13) rotate(30.43)"/><path class="cls-2" d="M399.74,136.92a199.57,199.57,0,0,0,7.88-63.19A211.74,211.74,0,0,0,391.25,0,211.79,211.79,0,0,0,318.87,21.6a199.8,199.8,0,0,0-51.35,37.65Z"/><circle class="cls-3" cx="300.19" cy="154.07" r="35.97"/><circle class="cls-2" cx="299.46" cy="153.64" r="21.58"/><path class="cls-4" d="M407.47,65.75a722.61,722.61,0,0,1-89,85.74,724.1,724.1,0,0,1-142.88,90.32c-1.13,5.75-2.18,11.75-3.11,18-.82,5.47-1.44,10.39-1.92,14.65l89.76,52.72a398.9,398.9,0,0,0,35.29-28.34c5.61-5,12.37-11.18,19.76-18.51,40.2,49.3,23.22,107.53,23.22,107.53a148.32,148.32,0,0,0,22.85-43.68c15.85-48.93,1.23-92.74-6.33-111a303.12,303.12,0,0,0,18.71-30.77c13.23-25,35.63-67.25,34.26-125.14Q407.91,71.4,407.47,65.75Z"/><path class="cls-5" d="M330.23,65.13c26.56-17,46-37.23,52.3-52.52A174.55,174.55,0,0,0,337.82,25c-42,18-65.2,47.72-79,65.64C275.15,92.12,302.68,82.79,330.23,65.13Z"/><path class="cls-6" d="M106.32,193.87a148.41,148.41,0,0,0-27,41.23s26-26.34,67.23-32.59c16-19.67,30.69-40,40.31-53.77C164.19,153.93,132.38,165.83,106.32,193.87Z"/><path class="cls-7" d="M361,342a148.5,148.5,0,0,1-22.39,43.93s10-35.64-5.06-74.54c9.16-23.63,19.53-46.5,26.7-61.68C366.94,271.92,372.39,305.44,361,342Z"/><text class="cls-8" transform="translate(0 484.41)">study </text><text class="cls-9" transform="translate(143 598.25)">pod</text></g></g></svg>